<svg id="Layer_1" height="512" viewBox="0 0 512 512" width="512" xmlns="http://www.w3.org/2000/svg" data-name="Layer 1"><path d="m162 437.1a8.071 8.071 0 0 0 7.986 7.9h172.028a8.071 8.071 0 0 0 7.986-7.9v-89.1h-188z"/><path d="m109 321h-45.161c-4.3 0-7.839 3.044-7.839 7.329v90.05a7.7 7.7 0 0 0 7.839 7.621h45.161z"/><path d="m203 175.524v-12.524h-53v12.524c0 1.655 1.038 3.476 2.692 3.476h47.4c1.657 0 2.908-1.821 2.908-3.476z"/><path d="m393 463.073v-265.632l-31 26.982v34.837a26.051 26.051 0 0 1 -25.825 25.74h-1.137a25.636 25.636 0 0 1 -23.777-16.474l-13.475 11.606a63.854 63.854 0 0 1 -83.572.058l-13.475-11.674a25.643 25.643 0 0 1 -23.777 16.484h-1.137a26.051 26.051 0 0 1 -25.825-25.74v-34.837l-31-26.982v265.632c0 14.848 12.521 26.927 27.4 26.927h219.2c14.879 0 27.4-12.079 27.4-26.927zm-252-68.815a5 5 0 1 1 -10 0v-80.684a5 5 0 0 1 10 0zm0-98.508a5 5 0 0 1 -10 0v-5.907a5 5 0 0 1 10 0zm219 141.35a18.081 18.081 0 0 1 -17.986 17.9h-172.028a18.081 18.081 0 0 1 -17.986-17.9v-93.635a5.594 5.594 0 0 1 5.2-5.465h197.6a5.594 5.594 0 0 1 5.2 5.465z"/><path d="m87.03 311a501.018 501.018 0 0 1 -7.563-174.618c5.08-37.882 12.966-63.594 15.678-71.656-5.957-7.263-12.515-11.3-19.03-11.3-2.881 0-6 1.555-9.044 3.27-3.342 16.474-23.771 127.304 5.529 254.304z"/><path d="m417.642 64.839c2.62 8 10.308 33.666 15.174 71.635a509.262 509.262 0 0 1 -8.077 174.526h15.361c29.3-127 8.853-237.81 5.507-254.274-3.044-1.716-6.162-3.353-9.043-3.353-6.474 0-12.991 4.166-18.922 11.466z"/><path d="m390.181 100.849c9.351-35.673 26.9-57.542 46.387-57.542.17 0 .34-.008.51 0-7.257-9.276-17.2-19.466-25.921-20.748-19.014-2.79-33.652 12.234-40.681 21.466-10.905 14.317-19.22 34.975-23.247 55.975h35.428a37.115 37.115 0 0 1 7.524.849z"/><path d="m122.485 100h42.985c-5.8-31-20.3-58.633-37.806-71.03-8.489-6.012-17.206-8.112-25.906-6.411-6.642 1.3-16.684 10.874-25.05 20.681 19.254.435 36.545 21.76 45.777 56.76z"/><path d="m335.038 275h1.137a16.041 16.041 0 0 0 15.825-15.74v-70.26h-32v70.26c0 8.509 6.507 15.74 15.038 15.74zm.929-74.782a8.241 8.241 0 1 1 -8.5 8.237 8.381 8.381 0 0 1 8.5-8.237zm0 21.265a8.241 8.241 0 1 1 -8.5 8.237 8.381 8.381 0 0 1 8.5-8.237zm0 21.265a8.241 8.241 0 1 1 -8.5 8.236 8.38 8.38 0 0 1 8.5-8.236z"/><path d="m410 145.042v-7.942c0-14.847-12.462-27.1-27.343-27.1h-263.976a16.777 16.777 0 0 0 -16.681 16.454v18.588a53.351 53.351 0 0 0 18.3 40.213l29.7 25.9v-22.855c-6-1.1-10-6.408-10-12.778v-17.346a4.9 4.9 0 0 1 4.692-5.176h63.4a5.074 5.074 0 0 1 4.908 5.176v17.348c0 6.37-5 11.673-11 12.778v68.268l18.678 16.006a54.221 54.221 0 0 0 70.752 0l18.57-16.006v-68.27c-6-1.1-11-6.408-11-12.778v-17.346a5.074 5.074 0 0 1 4.9-5.176h63.4a4.9 4.9 0 0 1 4.7 5.176v17.348c0 6.37-4 11.673-10 12.778v22.852l29.7-25.9a53.351 53.351 0 0 0 18.3-40.212z"/><path d="m362 175.524v-12.524h-53v12.524c0 1.655 1.251 3.476 2.9 3.476h47.4c1.662 0 2.7-1.821 2.7-3.476z"/><path d="m448.161 321h-45.161v105h45.161a7.7 7.7 0 0 0 7.839-7.621v-90.05c0-4.285-3.541-7.329-7.839-7.329z"/><path d="m175.825 275h1.137c8.531 0 15.038-7.231 15.038-15.74v-70.26h-32v70.26a16.041 16.041 0 0 0 15.825 15.74zm.208-75.846a8.241 8.241 0 1 1 -8.5 8.237 8.381 8.381 0 0 1 8.5-8.237zm0 21.264a8.242 8.242 0 1 1 -8.5 8.238 8.382 8.382 0 0 1 8.5-8.238zm0 21.265a8.241 8.241 0 1 1 -8.5 8.237 8.381 8.381 0 0 1 8.5-8.237z"/></svg>