<svg id="Layer_1" data-name="Layer 1" xmlns="http://www.w3.org/2000/svg" width="64" height="64" viewBox="0 0 64 64"><defs><style>.cls-1{fill:#666;}</style></defs><title>apple</title><path class="cls-1" d="M41.8,19.2c-4.1-.3-7.5,2.3-9.5,2.3s-5-2.2-8.2-2.2a12.18,12.18,0,0,0-10.2,6.2c-4.4,7.6-1.1,18.8,3.1,25,2.1,3,4.6,6.4,7.8,6.3s4.3-2,8.1-2,4.9,2,8.2,2,5.5-3.1,7.6-6.1a25.46,25.46,0,0,0,3.4-7,10.88,10.88,0,0,1-1.2-19.4,11.49,11.49,0,0,0-9.1-5.1"/><path class="cls-1" d="M39.3,15.1a11.13,11.13,0,0,0,2.6-7.9A11.15,11.15,0,0,0,34.6,11,10.35,10.35,0,0,0,32,18.7c2.7,0.2,5.6-1.5,7.3-3.6"/></svg>