<?xml version="1.0" encoding="UTF-8"?>
<svg width="14px" height="24px" viewBox="0 0 14 24" version="1.1" xmlns="http://www.w3.org/2000/svg" xmlns:xlink="http://www.w3.org/1999/xlink">
    <!-- Generator: Sketch 48.2 (47327) - http://www.bohemiancoding.com/sketch -->
    <title>Dictation</title>
    <desc>Created with Sketch.</desc>
    <defs></defs>
    <g id="iPhone-X" stroke="none" stroke-width="1" fill="none" fill-rule="evenodd" transform="translate(-88.000000, -194.000000)">
        <path d="M98.7022235,217.999372 L98.7022235,218 L91.2946707,218 L91.2946707,217.999491 C91.2853779,217.999829 91.2760437,218 91.2666707,218 C90.837116,218 90.4888932,217.64179 90.4888932,217.199917 C90.4888932,216.758043 90.837116,216.399833 91.2666707,216.399833 C91.2760437,216.399833 91.2853779,216.400004 91.2946707,216.400342 L91.2946707,216.390232 L94.2315585,216.390232 L94.2315585,213.957979 C90.6761195,213.532933 87.9956768,210.432846 88.0000052,206.750828 C88.0000052,206.715624 88.0052941,206.683621 88.0059163,206.651618 L88.0059163,204.817746 C88.0020146,204.785265 88.0000052,204.752182 88.0000052,204.718616 C88.0000052,204.276742 88.3482281,203.918533 88.7777827,203.918533 C89.2073374,203.918533 89.5555602,204.276742 89.5555602,204.718616 C89.5555602,204.745237 89.5542963,204.771555 89.5518269,204.797508 L89.5518269,207.000454 L89.5477824,207.000454 L89.5477824,207.006855 C89.5477824,207.035658 89.5515158,207.064461 89.5518269,207.093264 L89.5518269,207.394095 L89.5664491,207.394095 C89.7976345,210.239545 92.0613257,212.457336 94.8354249,212.556233 L95.149647,212.556233 C97.9246342,212.458966 100.189569,210.240481 100.419867,207.394095 L100.438534,207.394095 L100.438534,204.728217 L100.444499,204.728175 C100.444463,204.724994 100.444445,204.721807 100.444445,204.718616 C100.444445,204.276742 100.792668,203.918533 101.222223,203.918533 C101.651777,203.918533 102,204.276742 102,204.718616 C102,204.741647 101.999054,204.76445 101.9972,204.786986 L101.9972,206.750828 L101.987867,206.750828 L101.987556,206.750828 C101.989997,210.426319 99.3194356,213.522707 95.7715579,213.957979 L95.7715579,216.390232 L98.7022235,216.390232 L98.7022235,216.400462 C98.7125434,216.400044 98.7229151,216.399833 98.7333346,216.399833 C99.1628892,216.399833 99.511112,216.758043 99.511112,217.199917 C99.511112,217.64179 99.1628892,218 98.7333346,218 C98.7229151,218 98.7125434,217.999789 98.7022235,217.999372 Z M99.1937788,205.403488 C99.1937788,205.886738 99.1937788,206.395591 99.1688899,206.878841 C99.1497844,207.314629 99.0851154,207.747033 98.9760011,208.168576 C98.732523,209.053368 98.2133352,209.831435 97.4982239,210.383206 C96.0314558,211.573674 93.9623272,211.573674 92.4955591,210.383206 C91.7785876,209.833144 91.2587575,209.054442 91.0171597,208.168576 C90.9075442,207.747152 90.8429693,207.31468 90.824582,206.878841 C90.7975153,206.395591 90.8000042,205.886738 90.8000042,205.403488 L90.8000042,201.358266 C90.8000042,200.878216 90.8024931,198.756395 90.8000042,198.397958 C90.8123002,197.959549 90.885639,197.525218 91.0177819,197.108223 C91.5158454,195.270887 93.1429467,194 94.9972026,194 C96.8514585,194 98.4785598,195.270887 98.9766234,197.108223 C99.0935859,197.528947 99.1665914,197.961304 99.194401,198.397958 C99.222401,198.881208 99.194401,200.878216 99.194401,201.358266 L99.194401,205.403488 L99.1937788,205.403488 Z" id="Dictation" fill="#9B9B9B"></path>
    </g>
</svg>